ffmpeg started on 2026-04-01 at 10:59:44
Report written to "D:\Convert\FFMetrics\reports\psnr_report-6.txt"
Log level: 32
Command line:
ffmpeg -hide_banner -nostdin -r 24000/1001 -i "F:\\Convert\\files\\[DC] Make Heroine ga Oosugiru - 07_Telegram_HEVC(261).mkv" -r 24000/1001 -i "F:\\Convert\\files\\[DC] Make Heroine ga Oosugiru - 07_Telegram.mp4" -lavfi "[0:v]settb=AVTB,setpts=PTS-STARTPTS,format=pix_fmts=yuv420p10le,fps=24000/1001,scale=1920:1080:flags=lanczos:param0=3:out_range=limited:out_color_matrix=bt709:out_chroma_loc=left,setsar=1/1,setdar=(1920/1080)*(1/1),colorspace=format=yuv420p10:range=tv:primaries=bt709:trc=bt709:space=bt709:fast=0[main];[1:v]settb=AVTB,setpts=PTS-STARTPTS,format=pix_fmts=yuv420p,fps=24000/1001,scale=1920:1080:flags=lanczos:param0=3:out_range=limited:out_color_matrix=bt709:out_chroma_loc=left,setsar=1/1,setdar=(1920/1080)*(1/1),colorspace=format=yuv420p:range=tv:primaries=bt709:trc=bt709:space=bt709:fast=0[ref];[main][ref]psnr=eof_action=endall:stats_file='D\\:/Convert/FFMetrics/logs/psnr_logfile-6.txt'" -f null -
Input #0, matroska,webm, from 'F:\Convert\files\[DC] Make Heroine ga Oosugiru - 07_Telegram_HEVC(261).mkv':
  Metadata:
    COMPATIBLE_BRANDS: isomiso2avc1mp41
    MAJOR_BRAND     : isom
    MINOR_VERSION   : 512
    ENCODER         : Lavf61.7.100
  Duration: 00:24:06.79, start: -0.021000, bitrate: 923 kb/s
  Stream #0:0: Video: hevc (Main 10), yuv420p10le(tv, bt709, progressive), 1920x1080 [SAR 1:1 DAR 16:9], 23.98 fps, 23.98 tbr, 1k tbn (default)
      Metadata:
        HANDLER_NAME    : VideoHandler
        VENDOR_ID       : [0][0][0][0]
        ENCODER         : Lavc61.19.100 libx265
        BPS             : 726462
        DURATION        : 00:24:06.569708333
        NUMBER_OF_FRAMES: 34683
        NUMBER_OF_BYTES : 131359728
        _STATISTICS_WRITING_APP: mkvpropedit v94.0 ('Initiate') 64-bit
        _STATISTICS_WRITING_DATE_UTC: 2026-03-30 10:25:45
        _STATISTICS_TAGS: BPS DURATION NUMBER_OF_FRAMES NUMBER_OF_BYTES
  Stream #0:1: Audio: aac (LC), 48000 Hz, stereo, fltp (default)
      Metadata:
        HANDLER_NAME    : SoundHandler
        VENDOR_ID       : [0][0][0][0]
        ENCODER         : Lavc61.19.100 aac
        BPS             : 193194
        DURATION        : 00:24:06.784000000
        NUMBER_OF_FRAMES: 67819
        NUMBER_OF_BYTES : 34938755
        _STATISTICS_WRITING_APP: mkvpropedit v94.0 ('Initiate') 64-bit
        _STATISTICS_WRITING_DATE_UTC: 2026-03-30 10:25:45
        _STATISTICS_TAGS: BPS DURATION NUMBER_OF_FRAMES NUMBER_OF_BYTES
Input #1, mov,mp4,m4a,3gp,3g2,mj2, from 'F:\Convert\files\[DC] Make Heroine ga Oosugiru - 07_Telegram.mp4':
  Metadata:
    major_brand     : isom
    minor_version   : 512
    compatible_brands: isomiso2avc1mp41
    encoder         : Lavf60.16.100
  Duration: 00:24:06.74, start: 0.000000, bitrate: 3764 kb/s
  Stream #1:0[0x1](und): Video: h264 (High) (avc1 / 0x31637661), yuv420p(tv, bt709, progressive), 1920x1080 [SAR 1:1 DAR 16:9], 3616 kb/s, 23.98 fps, 23.98 tbr, 24k tbn (default)
      Metadata:
        handler_name    : VideoHandler
        vendor_id       : [0][0][0][0]
        encoder         : Lavc60.31.102 h264_qsv
  Stream #1:1[0x2](und): Audio: aac (HE-AACv2) (mp4a / 0x6134706D), 48000 Hz, stereo, fltp, 144 kb/s (default)
      Metadata:
        handler_name    : SoundHandler
        vendor_id       : [0][0][0][0]
Stream mapping:
  Stream #0:0 (hevc) -> settb:default
  Stream #1:0 (h264) -> settb:default
  psnr:default -> Stream #0:0 (wrapped_avframe)
  Stream #0:1 -> #0:1 (aac (native) -> pcm_s16le (native))
Output #0, null, to 'pipe:':
  Metadata:
    COMPATIBLE_BRANDS: isomiso2avc1mp41
    MAJOR_BRAND     : isom
    MINOR_VERSION   : 512
    encoder         : Lavf61.7.100
  Stream #0:0: Video: wrapped_avframe, yuv420p10le(tv, bt709, progressive), 1920x1080 [SAR 1:1 DAR 16:9], q=2-31, 200 kb/s, 23.98 fps, 23.98 tbn
      Metadata:
        encoder         : Lavc61.19.100 wrapped_avframe
  Stream #0:1: Audio: pcm_s16le, 48000 Hz, stereo, s16, 1536 kb/s (default)
      Metadata:
        HANDLER_NAME    : SoundHandler
        VENDOR_ID       : [0][0][0][0]
        _STATISTICS_TAGS: BPS DURATION NUMBER_OF_FRAMES NUMBER_OF_BYTES
        BPS             : 193194
        DURATION        : 00:24:06.784000000
        NUMBER_OF_FRAMES: 67819
        NUMBER_OF_BYTES : 34938755
        _STATISTICS_WRITING_APP: mkvpropedit v94.0 ('Initiate') 64-bit
        _STATISTICS_WRITING_DATE_UTC: 2026-03-30 10:25:45
        encoder         : Lavc61.19.100 pcm_s16le
frame=  110 fps=0.0 q=-0.0 size=N/A time=00:00:04.58 bitrate=N/A speed=8.93x    frame=  293 fps=285 q=-0.0 size=N/A time=00:00:12.22 bitrate=N/A speed=11.9x    frame=  489 fps=315 q=-0.0 size=N/A time=00:00:20.39 bitrate=N/A speed=13.1x    frame=  649 fps=315 q=-0.0 size=N/A time=00:00:27.06 bitrate=N/A speed=13.1x    frame=  837 fps=325 q=-0.0 size=N/A time=00:00:34.90 bitrate=N/A speed=13.6x    frame=  971 fps=315 q=-0.0 size=N/A time=00:00:40.49 bitrate=N/A speed=13.1x    frame= 1124 fps=311 q=-0.0 size=N/A time=00:00:46.88 bitrate=N/A speed=  13x    frame= 1276 fps=309 q=-0.0 size=N/A time=00:00:53.21 bitrate=N/A speed=12.9x    frame= 1418 fps=306 q=-0.0 size=N/A time=00:00:59.14 bitrate=N/A speed=12.8x    frame= 1553 fps=301 q=-0.0 size=N/A time=00:01:04.77 bitrate=N/A speed=12.6x    frame= 1696 fps=299 q=-0.0 size=N/A time=00:01:10.73 bitrate=N/A speed=12.5x    frame= 1843 fps=298 q=-0.0 size=N/A time=00:01:16.86 bitrate=N/A speed=12.4x    frame= 2001 fps=298 q=-0.0 size=N/A time=00:01:23.45 bitrate=N/A speed=12.4x    frame= 2106 fps=292 q=-0.0 size=N/A time=00:01:27.83 bitrate=N/A speed=12.2x    frame= 2262 fps=293 q=-0.0 size=N/A time=00:01:34.34 bitrate=N/A speed=12.2x    frame= 2405 fps=292 q=-0.0 size=N/A time=00:01:40.30 bitrate=N/A speed=12.2x    frame= 2536 fps=289 q=-0.0 size=N/A time=00:01:45.77 bitrate=N/A speed=12.1x    frame= 2679 fps=289 q=-0.0 size=N/A time=00:01:51.73 bitrate=N/A speed=  12x    frame= 2839 fps=290 q=-0.0 size=N/A time=00:01:58.40 bitrate=N/A speed=12.1x    frame= 3006 fps=291 q=-0.0 size=N/A time=00:02:05.37 bitrate=N/A speed=12.2x    frame= 3195 fps=295 q=-0.0 size=N/A time=00:02:13.25 bitrate=N/A speed=12.3x    frame= 3385 fps=298 q=-0.0 size=N/A time=00:02:21.18 bitrate=N/A speed=12.4x    frame= 3574 fps=302 q=-0.0 size=N/A time=00:02:29.06 bitrate=N/A speed=12.6x    frame= 3769 fps=304 q=-0.0 size=N/A time=00:02:37.19 bitrate=N/A speed=12.7x    frame= 3959 fps=307 q=-0.0 size=N/A time=00:02:45.12 bitrate=N/A speed=12.8x    frame= 4129 fps=308 q=-0.0 size=N/A time=00:02:52.21 bitrate=N/A speed=12.9x    frame= 4294 fps=309 q=-0.0 size=N/A time=00:02:59.09 bitrate=N/A speed=12.9x    frame= 4473 fps=310 q=-0.0 size=N/A time=00:03:06.56 bitrate=N/A speed=12.9x    frame= 4647 fps=311 q=-0.0 size=N/A time=00:03:13.81 bitrate=N/A speed=  13x    frame= 4828 fps=312 q=-0.0 size=N/A time=00:03:21.36 bitrate=N/A speed=  13x    frame= 5017 fps=314 q=-0.0 size=N/A time=00:03:29.25 bitrate=N/A speed=13.1x    frame= 5194 fps=315 q=-0.0 size=N/A time=00:03:36.63 bitrate=N/A speed=13.1x    frame= 5378 fps=316 q=-0.0 size=N/A time=00:03:44.30 bitrate=N/A speed=13.2x    frame= 5563 fps=317 q=-0.0 size=N/A time=00:03:52.02 bitrate=N/A speed=13.2x    frame= 5751 fps=319 q=-0.0 size=N/A time=00:03:59.86 bitrate=N/A speed=13.3x    frame= 5940 fps=320 q=-0.0 size=N/A time=00:04:07.74 bitrate=N/A speed=13.3x    frame= 6129 fps=321 q=-0.0 size=N/A time=00:04:15.63 bitrate=N/A speed=13.4x    frame= 6313 fps=322 q=-0.0 size=N/A time=00:04:23.30 bitrate=N/A speed=13.4x    frame= 6499 fps=323 q=-0.0 size=N/A time=00:04:31.06 bitrate=N/A speed=13.5x    frame= 6696 fps=324 q=-0.0 size=N/A time=00:04:39.27 bitrate=N/A speed=13.5x    frame= 6883 fps=325 q=-0.0 size=N/A time=00:04:47.07 bitrate=N/A speed=13.6x    frame= 7066 fps=326 q=-0.0 size=N/A time=00:04:54.71 bitrate=N/A speed=13.6x    frame= 7259 fps=327 q=-0.0 size=N/A time=00:05:02.76 bitrate=N/A speed=13.6x    frame= 7445 fps=328 q=-0.0 size=N/A time=00:05:10.51 bitrate=N/A speed=13.7x    frame= 7626 fps=328 q=-0.0 size=N/A time=00:05:18.06 bitrate=N/A speed=13.7x    frame= 7797 fps=328 q=-0.0 size=N/A time=00:05:25.19 bitrate=N/A speed=13.7x    frame= 7995 fps=329 q=-0.0 size=N/A time=00:05:33.45 bitrate=N/A speed=13.7x    frame= 8180 fps=330 q=-0.0 size=N/A time=00:05:41.17 bitrate=N/A speed=13.8x    frame= 8368 fps=331 q=-0.0 size=N/A time=00:05:49.01 bitrate=N/A speed=13.8x    frame= 8552 fps=331 q=-0.0 size=N/A time=00:05:56.68 bitrate=N/A speed=13.8x    frame= 8745 fps=332 q=-0.0 size=N/A time=00:06:04.73 bitrate=N/A speed=13.9x    frame= 8927 fps=333 q=-0.0 size=N/A time=00:06:12.33 bitrate=N/A speed=13.9x    frame= 9106 fps=333 q=-0.0 size=N/A time=00:06:19.79 bitrate=N/A speed=13.9x    frame= 9274 fps=333 q=-0.0 size=N/A time=00:06:26.80 bitrate=N/A speed=13.9x    frame= 9455 fps=333 q=-0.0 size=N/A time=00:06:34.35 bitrate=N/A speed=13.9x    frame= 9634 fps=333 q=-0.0 size=N/A time=00:06:41.81 bitrate=N/A speed=13.9x    frame= 9816 fps=334 q=-0.0 size=N/A time=00:06:49.40 bitrate=N/A speed=13.9x    frame= 9997 fps=334 q=-0.0 size=N/A time=00:06:56.95 bitrate=N/A speed=13.9x    frame=10182 fps=334 q=-0.0 size=N/A time=00:07:04.67 bitrate=N/A speed=13.9x    frame=10374 fps=335 q=-0.0 size=N/A time=00:07:12.68 bitrate=N/A speed=  14x    frame=10556 fps=335 q=-0.0 size=N/A time=00:07:20.27 bitrate=N/A speed=  14x    frame=10739 fps=336 q=-0.0 size=N/A time=00:07:27.90 bitrate=N/A speed=  14x    frame=10922 fps=336 q=-0.0 size=N/A time=00:07:35.53 bitrate=N/A speed=  14x    frame=11110 fps=336 q=-0.0 size=N/A time=00:07:43.37 bitrate=N/A speed=  14x    frame=11281 fps=336 q=-0.0 size=N/A time=00:07:50.51 bitrate=N/A speed=  14x    frame=11465 fps=337 q=-0.0 size=N/A time=00:07:58.18 bitrate=N/A speed=  14x    frame=11659 fps=337 q=-0.0 size=N/A time=00:08:06.27 bitrate=N/A speed=14.1x    frame=11843 fps=337 q=-0.0 size=N/A time=00:08:13.95 bitrate=N/A speed=14.1x    frame=12031 fps=338 q=-0.0 size=N/A time=00:08:21.79 bitrate=N/A speed=14.1x    frame=12223 fps=338 q=-0.0 size=N/A time=00:08:29.80 bitrate=N/A speed=14.1x    frame=12411 fps=339 q=-0.0 size=N/A time=00:08:37.64 bitrate=N/A speed=14.1x    frame=12594 fps=339 q=-0.0 size=N/A time=00:08:45.27 bitrate=N/A speed=14.1x    frame=12782 fps=339 q=-0.0 size=N/A time=00:08:53.11 bitrate=N/A speed=14.2x    frame=12970 fps=340 q=-0.0 size=N/A time=00:09:00.95 bitrate=N/A speed=14.2x    frame=13150 fps=340 q=-0.0 size=N/A time=00:09:08.46 bitrate=N/A speed=14.2x    frame=13313 fps=339 q=-0.0 size=N/A time=00:09:15.26 bitrate=N/A speed=14.2x    frame=13485 fps=339 q=-0.0 size=N/A time=00:09:22.43 bitrate=N/A speed=14.2x    frame=13666 fps=339 q=-0.0 size=N/A time=00:09:29.98 bitrate=N/A speed=14.2x    frame=13854 fps=340 q=-0.0 size=N/A time=00:09:37.82 bitrate=N/A speed=14.2x    frame=14039 fps=340 q=-0.0 size=N/A time=00:09:45.54 bitrate=N/A speed=14.2x    frame=14213 fps=340 q=-0.0 size=N/A time=00:09:52.80 bitrate=N/A speed=14.2x    frame=14401 fps=340 q=-0.0 size=N/A time=00:10:00.64 bitrate=N/A speed=14.2x    frame=14584 fps=341 q=-0.0 size=N/A time=00:10:08.27 bitrate=N/A speed=14.2x    frame=14769 fps=341 q=-0.0 size=N/A time=00:10:15.99 bitrate=N/A speed=14.2x    frame=14958 fps=341 q=-0.0 size=N/A time=00:10:23.87 bitrate=N/A speed=14.2x    frame=15124 fps=341 q=-0.0 size=N/A time=00:10:30.79 bitrate=N/A speed=14.2x    frame=15293 fps=341 q=-0.0 size=N/A time=00:10:37.84 bitrate=N/A speed=14.2x    frame=15488 fps=341 q=-0.0 size=N/A time=00:10:45.97 bitrate=N/A speed=14.2x    frame=15676 fps=341 q=-0.0 size=N/A time=00:10:53.81 bitrate=N/A speed=14.2x    frame=15860 fps=342 q=-0.0 size=N/A time=00:11:01.49 bitrate=N/A speed=14.2x    frame=16050 fps=342 q=-0.0 size=N/A time=00:11:09.41 bitrate=N/A speed=14.3x    frame=16243 fps=342 q=-0.0 size=N/A time=00:11:17.46 bitrate=N/A speed=14.3x    frame=16425 fps=342 q=-0.0 size=N/A time=00:11:25.05 bitrate=N/A speed=14.3x    frame=16617 fps=343 q=-0.0 size=N/A time=00:11:33.06 bitrate=N/A speed=14.3x    frame=16801 fps=343 q=-0.0 size=N/A time=00:11:40.74 bitrate=N/A speed=14.3x    frame=16986 fps=343 q=-0.0 size=N/A time=00:11:48.45 bitrate=N/A speed=14.3x    frame=17181 fps=343 q=-0.0 size=N/A time=00:11:56.59 bitrate=N/A speed=14.3x    frame=17363 fps=343 q=-0.0 size=N/A time=00:12:04.18 bitrate=N/A speed=14.3x    frame=17541 fps=343 q=-0.0 size=N/A time=00:12:11.60 bitrate=N/A speed=14.3x    frame=17710 fps=343 q=-0.0 size=N/A time=00:12:18.65 bitrate=N/A speed=14.3x    frame=17848 fps=343 q=-0.0 size=N/A time=00:12:24.41 bitrate=N/A speed=14.3x    frame=18037 fps=343 q=-0.0 size=N/A time=00:12:32.29 bitrate=N/A speed=14.3x    frame=18215 fps=343 q=-0.0 size=N/A time=00:12:39.71 bitrate=N/A speed=14.3x    frame=18387 fps=343 q=-0.0 size=N/A time=00:12:46.89 bitrate=N/A speed=14.3x    frame=18572 fps=343 q=-0.0 size=N/A time=00:12:54.60 bitrate=N/A speed=14.3x    frame=18758 fps=343 q=-0.0 size=N/A time=00:13:02.36 bitrate=N/A speed=14.3x    frame=18935 fps=343 q=-0.0 size=N/A time=00:13:09.74 bitrate=N/A speed=14.3x    frame=19117 fps=343 q=-0.0 size=N/A time=00:13:17.33 bitrate=N/A speed=14.3x    frame=19307 fps=343 q=-0.0 size=N/A time=00:13:25.26 bitrate=N/A speed=14.3x    frame=19488 fps=343 q=-0.0 size=N/A time=00:13:32.81 bitrate=N/A speed=14.3x    frame=19672 fps=344 q=-0.0 size=N/A time=00:13:40.48 bitrate=N/A speed=14.3x    frame=19845 fps=343 q=-0.0 size=N/A time=00:13:47.70 bitrate=N/A speed=14.3x    frame=20029 fps=344 q=-0.0 size=N/A time=00:13:55.37 bitrate=N/A speed=14.3x    frame=20207 fps=344 q=-0.0 size=N/A time=00:14:02.80 bitrate=N/A speed=14.3x    frame=20385 fps=344 q=-0.0 size=N/A time=00:14:10.22 bitrate=N/A speed=14.3x    frame=20558 fps=344 q=-0.0 size=N/A time=00:14:17.43 bitrate=N/A speed=14.3x    frame=20729 fps=343 q=-0.0 size=N/A time=00:14:24.57 bitrate=N/A speed=14.3x    frame=20911 fps=344 q=-0.0 size=N/A time=00:14:32.16 bitrate=N/A speed=14.3x    frame=21096 fps=344 q=-0.0 size=N/A time=00:14:39.87 bitrate=N/A speed=14.3x    frame=21270 fps=344 q=-0.0 size=N/A time=00:14:47.13 bitrate=N/A speed=14.3x    frame=21453 fps=344 q=-0.0 size=N/A time=00:14:54.76 bitrate=N/A speed=14.3x    frame=21636 fps=344 q=-0.0 size=N/A time=00:15:02.40 bitrate=N/A speed=14.3x    frame=21815 fps=344 q=-0.0 size=N/A time=00:15:09.86 bitrate=N/A speed=14.3x    frame=21994 fps=344 q=-0.0 size=N/A time=00:15:17.33 bitrate=N/A speed=14.3x    frame=22184 fps=344 q=-0.0 size=N/A time=00:15:25.25 bitrate=N/A speed=14.3x    frame=22363 fps=344 q=-0.0 size=N/A time=00:15:32.72 bitrate=N/A speed=14.3x    frame=22541 fps=344 q=-0.0 size=N/A time=00:15:40.14 bitrate=N/A speed=14.4x    frame=22723 fps=344 q=-0.0 size=N/A time=00:15:47.73 bitrate=N/A speed=14.4x    frame=22895 fps=344 q=-0.0 size=N/A time=00:15:54.91 bitrate=N/A speed=14.4x    frame=23074 fps=344 q=-0.0 size=N/A time=00:16:02.37 bitrate=N/A speed=14.4x    frame=23259 fps=344 q=-0.0 size=N/A time=00:16:10.09 bitrate=N/A speed=14.4x    frame=23439 fps=344 q=-0.0 size=N/A time=00:16:17.60 bitrate=N/A speed=14.4x    frame=23620 fps=344 q=-0.0 size=N/A time=00:16:25.15 bitrate=N/A speed=14.4x    frame=23805 fps=344 q=-0.0 size=N/A time=00:16:32.86 bitrate=N/A speed=14.4x    frame=23987 fps=344 q=-0.0 size=N/A time=00:16:40.45 bitrate=N/A speed=14.4x    frame=24166 fps=344 q=-0.0 size=N/A time=00:16:47.92 bitrate=N/A speed=14.4x    frame=24350 fps=345 q=-0.0 size=N/A time=00:16:55.59 bitrate=N/A speed=14.4x    frame=24530 fps=345 q=-0.0 size=N/A time=00:17:03.10 bitrate=N/A speed=14.4x    frame=24712 fps=345 q=-0.0 size=N/A time=00:17:10.69 bitrate=N/A speed=14.4x    frame=24889 fps=345 q=-0.0 size=N/A time=00:17:18.07 bitrate=N/A speed=14.4x    frame=25070 fps=345 q=-0.0 size=N/A time=00:17:25.62 bitrate=N/A speed=14.4x    frame=25260 fps=345 q=-0.0 size=N/A time=00:17:33.55 bitrate=N/A speed=14.4x    frame=25436 fps=345 q=-0.0 size=N/A time=00:17:40.89 bitrate=N/A speed=14.4x    frame=25620 fps=345 q=-0.0 size=N/A time=00:17:48.56 bitrate=N/A speed=14.4x    frame=25797 fps=345 q=-0.0 size=N/A time=00:17:55.94 bitrate=N/A speed=14.4x    frame=25980 fps=345 q=-0.0 size=N/A time=00:18:03.58 bitrate=N/A speed=14.4x    frame=26157 fps=345 q=-0.0 size=N/A time=00:18:10.96 bitrate=N/A speed=14.4x    frame=26338 fps=345 q=-0.0 size=N/A time=00:18:18.51 bitrate=N/A speed=14.4x    frame=26515 fps=345 q=-0.0 size=N/A time=00:18:25.89 bitrate=N/A speed=14.4x    frame=26700 fps=345 q=-0.0 size=N/A time=00:18:33.61 bitrate=N/A speed=14.4x    frame=26884 fps=345 q=-0.0 size=N/A time=00:18:41.28 bitrate=N/A speed=14.4x    frame=27043 fps=345 q=-0.0 size=N/A time=00:18:47.91 bitrate=N/A speed=14.4x    frame=27209 fps=345 q=-0.0 size=N/A time=00:18:54.84 bitrate=N/A speed=14.4x    frame=27386 fps=345 q=-0.0 size=N/A time=00:19:02.22 bitrate=N/A speed=14.4x    frame=27566 fps=345 q=-0.0 size=N/A time=00:19:09.73 bitrate=N/A speed=14.4x    frame=27739 fps=345 q=-0.0 size=N/A time=00:19:16.94 bitrate=N/A speed=14.4x    frame=27920 fps=345 q=-0.0 size=N/A time=00:19:24.49 bitrate=N/A speed=14.4x    frame=28096 fps=345 q=-0.0 size=N/A time=00:19:31.83 bitrate=N/A speed=14.4x    frame=28277 fps=345 q=-0.0 size=N/A time=00:19:39.38 bitrate=N/A speed=14.4x    frame=28455 fps=345 q=-0.0 size=N/A time=00:19:46.81 bitrate=N/A speed=14.4x    frame=28633 fps=345 q=-0.0 size=N/A time=00:19:54.23 bitrate=N/A speed=14.4x    frame=28802 fps=345 q=-0.0 size=N/A time=00:20:01.28 bitrate=N/A speed=14.4x    frame=28966 fps=344 q=-0.0 size=N/A time=00:20:08.12 bitrate=N/A speed=14.4x    frame=29128 fps=344 q=-0.0 size=N/A time=00:20:14.88 bitrate=N/A speed=14.4x    frame=29304 fps=344 q=-0.0 size=N/A time=00:20:22.22 bitrate=N/A speed=14.4x    frame=29468 fps=344 q=-0.0 size=N/A time=00:20:29.06 bitrate=N/A speed=14.4x    frame=29640 fps=344 q=-0.0 size=N/A time=00:20:36.23 bitrate=N/A speed=14.3x    frame=29805 fps=344 q=-0.0 size=N/A time=00:20:43.11 bitrate=N/A speed=14.3x    frame=29967 fps=344 q=-0.0 size=N/A time=00:20:49.87 bitrate=N/A speed=14.3x    frame=30127 fps=343 q=-0.0 size=N/A time=00:20:56.54 bitrate=N/A speed=14.3x    frame=30306 fps=343 q=-0.0 size=N/A time=00:21:04.01 bitrate=N/A speed=14.3x    frame=30483 fps=343 q=-0.0 size=N/A time=00:21:11.39 bitrate=N/A speed=14.3x    frame=30655 fps=343 q=-0.0 size=N/A time=00:21:18.56 bitrate=N/A speed=14.3x    frame=30849 fps=344 q=-0.0 size=N/A time=00:21:26.66 bitrate=N/A speed=14.3x    frame=31021 fps=344 q=-0.0 size=N/A time=00:21:33.83 bitrate=N/A speed=14.3x    frame=31204 fps=344 q=-0.0 size=N/A time=00:21:41.46 bitrate=N/A speed=14.3x    frame=31382 fps=344 q=-0.0 size=N/A time=00:21:48.89 bitrate=N/A speed=14.3x    frame=31555 fps=344 q=-0.0 size=N/A time=00:21:56.10 bitrate=N/A speed=14.3x    frame=31740 fps=344 q=-0.0 size=N/A time=00:22:03.82 bitrate=N/A speed=14.3x    frame=31902 fps=343 q=-0.0 size=N/A time=00:22:10.57 bitrate=N/A speed=14.3x    frame=32071 fps=343 q=-0.0 size=N/A time=00:22:17.62 bitrate=N/A speed=14.3x    frame=32254 fps=343 q=-0.0 size=N/A time=00:22:25.26 bitrate=N/A speed=14.3x    frame=32439 fps=344 q=-0.0 size=N/A time=00:22:32.97 bitrate=N/A speed=14.3x    frame=32619 fps=344 q=-0.0 size=N/A time=00:22:40.48 bitrate=N/A speed=14.3x    frame=32756 fps=343 q=-0.0 size=N/A time=00:22:46.19 bitrate=N/A speed=14.3x    frame=32918 fps=343 q=-0.0 size=N/A time=00:22:52.95 bitrate=N/A speed=14.3x    frame=33092 fps=343 q=-0.0 size=N/A time=00:23:00.21 bitrate=N/A speed=14.3x    frame=33260 fps=343 q=-0.0 size=N/A time=00:23:07.21 bitrate=N/A speed=14.3x    frame=33418 fps=343 q=-0.0 size=N/A time=00:23:13.80 bitrate=N/A speed=14.3x    frame=33570 fps=342 q=-0.0 size=N/A time=00:23:20.14 bitrate=N/A speed=14.3x    frame=33714 fps=342 q=-0.0 size=N/A time=00:23:26.15 bitrate=N/A speed=14.3x    frame=33831 fps=342 q=-0.0 size=N/A time=00:23:31.03 bitrate=N/A speed=14.2x    frame=33965 fps=341 q=-0.0 size=N/A time=00:23:36.62 bitrate=N/A speed=14.2x    frame=34126 fps=341 q=-0.0 size=N/A time=00:23:43.33 bitrate=N/A speed=14.2x    frame=34273 fps=341 q=-0.0 size=N/A time=00:23:49.46 bitrate=N/A speed=14.2x    frame=34402 fps=340 q=-0.0 size=N/A time=00:23:54.85 bitrate=N/A speed=14.2x    frame=34557 fps=340 q=-0.0 size=N/A time=00:24:01.31 bitrate=N/A speed=14.2x    [Parsed_psnr_16 @ 000002adb4835d80] PSNR y:48.755269 u:50.348549 v:50.392637 average:49.229923 min:37.729647 max:inf
[out#0/null @ 000002ada7e7dec0] video:14903KiB audio:271276KiB subtitle:0KiB other streams:0KiB global headers:0KiB muxing overhead: unknown
frame=34683 fps=340 q=-0.0 Lsize=N/A time=00:24:06.57 bitrate=N/A speed=14.2x    
